<svg width="96" height="96" viewBox="0 0 96 96" fill="none" xmlns="http://www.w3.org/2000/svg">
<g clip-path="url(#clip0_450_24)">
<path d="M0 8.22857C0 3.68406 3.68406 0 8.22857 0H87.7714C92.3159 0 96 3.68406 96 8.22857V87.7714C96 92.3159 92.3159 96 87.7714 96H8.22857C3.68406 96 0 92.3159 0 87.7714V8.22857Z" fill="#742894"/>
<path d="M37 10C33.1701 10 30 13.1701 30 17V26H19C12.9605 26 8 30.9605 8 37V75C8 81.0395 12.9605 86 19 86H77C83.0395 86 88 81.0395 88 75V37C88 30.9605 83.0395 26 77 26H66V17C66 13.1701 62.8299 10 59 10H37ZM37 16H59C59.5901 16 60 16.4099 60 17V26H36V17C36 16.4099 36.4099 16 37 16ZM19 32H77C79.7965 32 82 34.2035 82 37V46H72V45C72 43.344 70.656 42 69 42H63C61.344 42 60 43.344 60 45V46H36V45C36 43.344 34.656 42 33 42H27C25.344 42 24 43.344 24 45V46H14V37C14 34.2035 16.2035 32 19 32ZM14 52H24V53C24 54.656 25.344 56 27 56H33C34.656 56 36 54.656 36 53V52H60V53C60 54.656 61.344 56 63 56H69C70.656 56 72 54.656 72 53V52H82V75C82 77.7965 79.7965 80 77 80H19C16.2035 80 14 77.7965 14 75V52Z" fill="#FBF9FC"/>
<path d="M55 66C55 69.866 51.866 73 48 73C44.134 73 41 69.866 41 66C41 62.134 44.134 59 48 59C51.866 59 55 62.134 55 66Z" fill="#FBF9FC"/>
</g>
<defs>
<clipPath id="clip0_450_24">
<rect width="96" height="96" fill="white"/>
</clipPath>
</defs>
</svg>
