<svg width="880" height="352" viewBox="0 0 880 352" fill="none" xmlns="http://www.w3.org/2000/svg">
<rect width="880" height="352" fill="#742894"/>
<path d="M145.062 88C136.206 88 128.875 95.3413 128.875 104.211V125.053H103.438C89.471 125.053 78 136.54 78 150.526V238.526C78 252.513 89.471 264 103.438 264H237.562C251.529 264 263 252.513 263 238.526V150.526C263 136.54 251.529 125.053 237.562 125.053H212.125V104.211C212.125 95.3413 204.794 88 195.938 88H145.062ZM145.062 101.895H195.938C197.302 101.895 198.25 102.844 198.25 104.211V125.053H142.75V104.211C142.75 102.844 143.698 101.895 145.062 101.895ZM103.438 138.947H237.562C244.029 138.947 249.125 144.05 249.125 150.526V171.368H226V169.053C226 165.218 222.892 162.105 219.062 162.105H205.188C201.358 162.105 198.25 165.218 198.25 169.053V171.368H142.75V169.053C142.75 165.218 139.642 162.105 135.812 162.105H121.938C118.108 162.105 115 165.218 115 169.053V171.368H91.875V150.526C91.875 144.05 96.9707 138.947 103.438 138.947ZM91.875 185.263H115V187.579C115 191.414 118.108 194.526 121.938 194.526H135.812C139.642 194.526 142.75 191.414 142.75 187.579V185.263H198.25V187.579C198.25 191.414 201.358 194.526 205.188 194.526H219.062C222.892 194.526 226 191.414 226 187.579V185.263H249.125V238.526C249.125 245.002 244.029 250.105 237.562 250.105H103.438C96.9707 250.105 91.875 245.002 91.875 238.526V185.263Z" fill="#FBF9FC"/>
<path d="M186.688 217.684C186.688 226.637 179.44 233.895 170.5 233.895C161.56 233.895 154.312 226.637 154.312 217.684C154.312 208.731 161.56 201.474 170.5 201.474C179.44 201.474 186.688 208.731 186.688 217.684Z" fill="#FBF9FC"/>
<path d="M335.466 216.433H318.949L319.055 205.818H335.466C340.246 205.818 344.247 204.769 347.47 202.671C350.727 200.573 353.17 197.568 354.799 193.656C356.463 189.744 357.295 185.086 357.295 179.681V175.467C357.295 171.27 356.817 167.554 355.861 164.318C354.941 161.082 353.56 158.362 351.718 156.157C349.913 153.952 347.682 152.281 345.026 151.143C342.406 150.005 339.379 149.436 335.944 149.436H318.63V138.767H335.944C341.078 138.767 345.77 139.639 350.019 141.381C354.268 143.088 357.933 145.56 361.013 148.796C364.129 152.032 366.519 155.908 368.183 160.424C369.847 164.94 370.679 169.99 370.679 175.573V179.681C370.679 185.264 369.847 190.313 368.183 194.83C366.519 199.346 364.129 203.222 361.013 206.458C357.897 209.659 354.179 212.13 349.86 213.873C345.575 215.58 340.777 216.433 335.466 216.433ZM326.331 138.767V216.433H313V138.767H326.331Z" fill="white"/>
<path d="M380.346 188.215V186.988C380.346 182.828 380.948 178.969 382.152 175.413C383.355 171.822 385.09 168.71 387.356 166.078C389.658 163.411 392.455 161.349 395.748 159.891C399.076 158.397 402.83 157.65 407.008 157.65C411.221 157.65 414.975 158.397 418.268 159.891C421.596 161.349 424.411 163.411 426.712 166.078C429.014 168.71 430.766 171.822 431.97 175.413C433.174 178.969 433.776 182.828 433.776 186.988V188.215C433.776 192.376 433.174 196.234 431.97 199.79C430.766 203.347 429.014 206.458 426.712 209.125C424.411 211.757 421.614 213.819 418.321 215.313C415.028 216.771 411.292 217.5 407.114 217.5C402.901 217.5 399.13 216.771 395.801 215.313C392.508 213.819 389.711 211.757 387.41 209.125C385.108 206.458 383.355 203.347 382.152 199.79C380.948 196.234 380.346 192.376 380.346 188.215ZM393.146 186.988V188.215C393.146 190.811 393.411 193.265 393.942 195.576C394.473 197.888 395.306 199.915 396.439 201.657C397.572 203.4 399.023 204.769 400.794 205.765C402.564 206.76 404.671 207.258 407.114 207.258C409.486 207.258 411.54 206.76 413.275 205.765C415.045 204.769 416.497 203.4 417.63 201.657C418.763 199.915 419.595 197.888 420.126 195.576C420.693 193.265 420.976 190.811 420.976 188.215V186.988C420.976 184.428 420.693 182.01 420.126 179.734C419.595 177.422 418.746 175.378 417.577 173.6C416.444 171.822 414.992 170.435 413.222 169.439C411.487 168.408 409.416 167.892 407.008 167.892C404.6 167.892 402.511 168.408 400.741 169.439C399.006 170.435 397.572 171.822 396.439 173.6C395.306 175.378 394.473 177.422 393.942 179.734C393.411 182.01 393.146 184.428 393.146 186.988Z" fill="white"/>
<path d="M470.848 158.717V168.105H438.45V158.717H470.848ZM447.798 144.582H460.598V200.484C460.598 202.262 460.845 203.631 461.341 204.591C461.872 205.516 462.598 206.138 463.519 206.458C464.439 206.778 465.519 206.938 466.759 206.938C467.644 206.938 468.494 206.885 469.308 206.778C470.122 206.672 470.777 206.565 471.273 206.458L471.326 216.273C470.264 216.593 469.025 216.878 467.608 217.127C466.227 217.376 464.634 217.5 462.828 217.5C459.889 217.5 457.287 216.984 455.021 215.953C452.755 214.886 450.984 213.162 449.71 210.779C448.435 208.396 447.798 205.231 447.798 201.284V144.582Z" fill="white"/>
<path d="M513.816 138.767V216.433H500.591V138.767H513.816ZM538.088 138.767V149.436H476.531V138.767H538.088Z" fill="white"/>
<path d="M537.132 188.215V186.988C537.132 182.828 537.734 178.969 538.937 175.413C540.141 171.822 541.876 168.71 544.142 166.078C546.444 163.411 549.241 161.349 552.534 159.891C555.862 158.397 559.616 157.65 563.794 157.65C568.007 157.65 571.761 158.397 575.053 159.891C578.382 161.349 581.197 163.411 583.498 166.078C585.8 168.71 587.552 171.822 588.756 175.413C589.96 178.969 590.562 182.828 590.562 186.988V188.215C590.562 192.376 589.96 196.234 588.756 199.79C587.552 203.347 585.8 206.458 583.498 209.125C581.197 211.757 578.399 213.819 575.107 215.313C571.814 216.771 568.078 217.5 563.9 217.5C559.686 217.5 555.916 216.771 552.587 215.313C549.294 213.819 546.497 211.757 544.196 209.125C541.894 206.458 540.141 203.347 538.937 199.79C537.734 196.234 537.132 192.376 537.132 188.215ZM549.932 186.988V188.215C549.932 190.811 550.197 193.265 550.728 195.576C551.259 197.888 552.091 199.915 553.225 201.657C554.358 203.4 555.809 204.769 557.58 205.765C559.35 206.76 561.457 207.258 563.9 207.258C566.272 207.258 568.326 206.76 570.061 205.765C571.831 204.769 573.283 203.4 574.416 201.657C575.549 199.915 576.381 197.888 576.912 195.576C577.479 193.265 577.762 190.811 577.762 188.215V186.988C577.762 184.428 577.479 182.01 576.912 179.734C576.381 177.422 575.531 175.378 574.363 173.6C573.23 171.822 571.778 170.435 570.008 169.439C568.273 168.408 566.201 167.892 563.794 167.892C561.386 167.892 559.297 168.408 557.527 169.439C555.792 170.435 554.358 171.822 553.225 173.6C552.091 175.378 551.259 177.422 550.728 179.734C550.197 182.01 549.932 184.428 549.932 186.988Z" fill="white"/>
<path d="M598.848 188.215V186.988C598.848 182.828 599.449 178.969 600.653 175.413C601.857 171.822 603.592 168.71 605.858 166.078C608.16 163.411 610.957 161.349 614.25 159.891C617.578 158.397 621.331 157.65 625.51 157.65C629.723 157.65 633.476 158.397 636.769 159.891C640.098 161.349 642.913 163.411 645.214 166.078C647.516 168.71 649.268 171.822 650.472 175.413C651.676 178.969 652.278 182.828 652.278 186.988V188.215C652.278 192.376 651.676 196.234 650.472 199.79C649.268 203.347 647.516 206.458 645.214 209.125C642.913 211.757 640.115 213.819 636.822 215.313C633.53 216.771 629.794 217.5 625.616 217.5C621.402 217.5 617.631 216.771 614.303 215.313C611.01 213.819 608.213 211.757 605.911 209.125C603.61 206.458 601.857 203.347 600.653 199.79C599.449 196.234 598.848 192.376 598.848 188.215ZM611.647 186.988V188.215C611.647 190.811 611.913 193.265 612.444 195.576C612.975 197.888 613.807 199.915 614.94 201.657C616.073 203.4 617.525 204.769 619.296 205.765C621.066 206.76 623.173 207.258 625.616 207.258C627.988 207.258 630.042 206.76 631.777 205.765C633.547 204.769 634.999 203.4 636.132 201.657C637.265 199.915 638.097 197.888 638.628 195.576C639.195 193.265 639.478 190.811 639.478 188.215V186.988C639.478 184.428 639.195 182.01 638.628 179.734C638.097 177.422 637.247 175.378 636.079 173.6C634.946 171.822 633.494 170.435 631.724 169.439C629.989 168.408 627.917 167.892 625.51 167.892C623.102 167.892 621.013 168.408 619.242 169.439C617.507 170.435 616.073 171.822 614.94 173.6C613.807 175.378 612.975 177.422 612.444 179.734C611.913 182.01 611.647 184.428 611.647 186.988Z" fill="white"/>
<path d="M676.709 134.5V216.433H663.856V134.5H676.709Z" fill="white"/>
<path d="M703.637 134.5V216.433H690.784V134.5H703.637ZM739.328 158.717L714.312 186.562L700.61 200.644L697.264 189.762L707.62 176.907L723.873 158.717H739.328ZM726.634 216.433L707.992 189.335L716.065 180.321L741.453 216.433H726.634Z" fill="white"/>
<path d="M761.157 158.717V216.433H748.304V158.717H761.157ZM747.454 143.568C747.454 141.612 748.092 139.994 749.366 138.714C750.676 137.398 752.482 136.74 754.784 136.74C757.05 136.74 758.838 137.398 760.148 138.714C761.458 139.994 762.113 141.612 762.113 143.568C762.113 145.488 761.458 147.089 760.148 148.369C758.838 149.649 757.05 150.289 754.784 150.289C752.482 150.289 750.676 149.649 749.366 148.369C748.092 147.089 747.454 145.488 747.454 143.568Z" fill="white"/>
<path d="M801.522 158.717V168.105H769.124V158.717H801.522ZM778.472 144.582H791.271V200.484C791.271 202.262 791.519 203.631 792.015 204.591C792.546 205.516 793.272 206.138 794.193 206.458C795.113 206.778 796.193 206.938 797.432 206.938C798.318 206.938 799.167 206.885 799.982 206.778C800.796 206.672 801.451 206.565 801.947 206.458L802 216.273C800.938 216.593 799.699 216.878 798.282 217.127C796.901 217.376 795.308 217.5 793.502 217.5C790.563 217.5 787.961 216.984 785.695 215.953C783.429 214.886 781.658 213.162 780.384 210.779C779.109 208.396 778.472 205.231 778.472 201.284V144.582Z" fill="white"/>
</svg>
